<svg width="3406" height="1218" viewBox="0 0 3406 1218" fill="none"
  xmlns="http://www.w3.org/2000/svg">
  <path
    d="M3329.11 1216H2448.3C2448.3 1216 3249.68 259.3 3305.92 104.564C3324.4 53.7114 3205.76 -38.5376 3249.68 -22.0549C3293.61 -5.5723 3305.92 -7.98613 3362.16 34.1987C3416.53 74.9858 3773.2 576.153 3796.78 609.318C3797.54 610.391 3797.45 611.754 3796.65 612.798L3337.04 1212.09C3335.15 1214.55 3332.22 1216 3329.11 1216Z"
    stroke="#CD992B" stroke-opacity="0.33" stroke-width="3" />
  <path
    d="M3179.39 104.564C3172.7 125.804 2827.9 554.766 2827.9 554.766L2378 -22.0549C2378 -22.0549 2996.61 -22.0467 3095.03 -22.0549C3193.45 -22.0631 3186.07 83.3251 3179.39 104.564Z"
    stroke="#CD992B" stroke-opacity="0.33" stroke-width="3" />
  <path
    d="M117.893 -24L998.703 -23.9999C998.703 -23.9999 197.317 932.7 141.079 1087.44C122.597 1138.29 241.241 1230.54 197.317 1214.05C153.392 1197.57 141.079 1199.99 84.8416 1157.8C30.4672 1117.01 -326.2 615.847 -349.775 582.682C-350.538 581.609 -350.454 580.246 -349.652 579.202L109.958 -20.0857C111.851 -22.5533 114.784 -24 117.893 -24Z"
    stroke="#CD992B" stroke-opacity="0.33" stroke-width="3" />
  <path
    d="M267.614 1087.44C274.298 1066.2 619.099 637.234 619.099 637.234L1069 1214.06C1069 1214.06 450.386 1214.05 351.97 1214.05C253.554 1214.06 260.929 1108.67 267.614 1087.44Z"
    stroke="#CD992B" stroke-opacity="0.33" stroke-width="3" />
</svg>