<svg width="27" height="20" viewBox="0 0 27 20" fill="none" xmlns="http://www.w3.org/2000/svg">
<path fill-rule="evenodd" clip-rule="evenodd" d="M22.219 0.354078C22.5666 0.163755 22.9494 0.0466804 23.344 0.0100783C23.7338 -0.0215396 24.126 0.020873 24.5 0.135078C25.2604 0.36018 25.9007 0.877192 26.281 1.57308C27.059 3.01808 26.477 4.85808 25.031 5.63508L24.2349 6.06166H23.999V5.6327C23.999 4.60151 22.2842 4.60151 22.2842 5.6327V6.06166H20.7143V5.68531L24.094 3.85408C24.2684 3.76356 24.4116 3.62262 24.5049 3.44962C24.5981 3.27662 24.6371 3.07956 24.6168 2.88408C24.5966 2.6886 24.5179 2.50374 24.3911 2.35357C24.2644 2.2034 24.0953 2.09486 23.906 2.04208C23.785 2.00608 23.656 2.00208 23.531 2.01008C23.401 2.01402 23.2734 2.04609 23.157 2.10408L7.937 10.1351L7.531 10.3851L7.063 10.1671L3.406 8.54108L3.25 8.63508L7.219 12.9481L13.531 9.54208L15.344 8.57308L14.969 10.6041L13.906 16.5101L14.344 16.3231L16 12.3421V16.3742H16.7792L15.906 17.8541L15.531 18.0101L12.969 19.1041L11.25 19.8231L11.594 18.0101L12.625 12.3231L7.469 15.0731L6.781 15.4481L6.281 14.8541L0.875 9.04208L0 8.10408L1.156 7.47908L2.906 6.54208L3.344 6.32308L3.781 6.51008L7.438 8.16708L10.844 6.35408L8.125 4.29108L6.938 3.38508L8.219 2.63508L10.375 1.38508L10.75 1.19808L11.125 1.29108L17.5 2.85408L22.219 0.354078ZM14.844 4.26008L11 3.32308L10.531 3.60408L12.781 5.32308L14.844 4.26008Z" fill="white"/>
<path d="M17 16C16.1087 16 15.9893 13.8333 15.9893 12.5L15.5 17C15.7355 16.8823 15.7523 17.6569 16 17.5C16.4535 17.2128 17.0808 16 17 16Z" fill="white"/>
<g clip-path="url(#clip0_43_198)">
<path d="M19.8926 6.86499V8.46916M23.1009 6.86499V8.46916" stroke="white" stroke-width="0.802083" stroke-linecap="round" stroke-linejoin="round"/>
<path d="M24.3073 7.66675H18.6927C18.2497 7.66675 17.8906 8.02585 17.8906 8.46883V14.0834C17.8906 14.5264 18.2497 14.8855 18.6927 14.8855H24.3073C24.7503 14.8855 25.1094 14.5264 25.1094 14.0834V8.46883C25.1094 8.02585 24.7503 7.66675 24.3073 7.66675Z" stroke="white" stroke-width="0.802083" stroke-linecap="round" stroke-linejoin="round"/>
<path d="M17.8906 10.073H25.1094" stroke="white" stroke-width="0.802083" stroke-linecap="round" stroke-linejoin="round"/>
</g>
<defs>
<clipPath id="clip0_43_198">
<rect width="9.625" height="9.625" fill="white" transform="translate(16.6875 6.0625)"/>
</clipPath>
</defs>
</svg>
