<svg width="32" height="32" viewBox="0 0 32 32" fill="none" xmlns="http://www.w3.org/2000/svg">
  <path fill-rule="evenodd" clip-rule="evenodd"
    d="M25.719 4.7809C25.3244 4.8175 24.9416 4.93458 24.594 5.1249L22.9417 6.00023L22.9955 6C24.0839 6 25.112 6.28201 25.9997 6.77747C26.0946 6.77686 26.1901 6.78584 26.281 6.8129C26.4703 6.86568 26.6394 6.97422 26.7661 7.12439C26.8418 7.21402 26.9003 7.31599 26.9395 7.42521C27.5918 7.97273 28.1217 8.65472 28.4807 9.42957C29.0814 8.5343 29.1947 7.34442 28.656 6.3439C28.2757 5.64802 27.6354 5.131 26.875 4.9059C26.501 4.7917 26.1088 4.74928 25.719 4.7809ZM13.5 6.0619L19.0535 7.4235C17.896 8.39425 17.1233 9.78831 17.0068 11.3733L12.8326 13.5759C12.5691 13.6234 12.3108 13.6989 12.0622 13.8015C11.6037 13.9907 11.187 14.2683 10.8358 14.6186L10.8131 14.6415L10.312 14.9059L9.906 15.1559L9.438 14.9379L5.781 13.3119L5.625 13.4059L9.594 17.7189L9.74308 17.6385C9.77848 18.0149 9.8703 18.3847 10.016 18.735C10.1316 19.0129 10.2797 19.2754 10.4568 19.517L9.844 19.8439L9.156 20.2189L8.656 19.6249L3.25 13.8129L2.375 12.8749L3.531 12.2499L5.281 11.3129L5.719 11.0939L6.156 11.2809L9.813 12.9379L13.219 11.1249L10.5 9.0619L9.313 8.1559L10.594 7.4059L12.75 6.1559L13.125 5.9689L13.5 6.0619ZM17.344 15.3749L17.5532 14.2421C17.4492 14.0263 17.359 13.8041 17.2832 13.5768L15.906 14.3129L15.7977 14.3713C16.5086 14.8815 16.9561 15.6868 17.1331 16.5467L17.344 15.3749ZM16.6016 19.4997C16.4635 19.7043 16.3011 19.8961 16.113 20.0701C15.6461 20.5022 15.0409 20.8065 14.3039 20.9336L14.1938 21.5409C15.022 21.6281 15.934 21.8632 16.7846 22.2132C17.1666 22.3704 17.5517 22.5572 17.9215 22.7745L18.281 22.6249L18.438 22.2499L20.1944 17.9835C19.7629 18.0389 19.3225 18.0281 18.8885 17.9487C18.6073 17.8972 18.3649 17.7288 18.2178 17.4907L16.719 21.0939L16.281 21.2809L16.6016 19.4997ZM14.4981 19.8624C14.8849 19.7447 15.1929 19.5591 15.4338 19.3361C15.859 18.9427 16.1114 18.3992 16.1921 17.8074C16.3587 16.5853 15.7886 15.354 14.8143 14.9642L14.8461 14.8849L13.6638 15.5228C14.0774 15.5591 14.4671 15.7394 14.7632 16.035C15.0962 16.3674 15.2837 16.8184 15.2845 17.2888C15.2835 17.7592 15.0959 18.2099 14.763 18.5422C14.7527 18.5524 14.7424 18.5624 14.732 18.5724L14.4981 19.8624ZM13.5062 17.8906L13.5066 15.6077L11.936 16.4551C11.9091 16.5056 11.8845 16.5574 11.8625 16.6104C11.7731 16.8255 11.7269 17.056 11.7265 17.2888C11.727 17.5216 11.7733 17.7521 11.8627 17.967C11.9522 18.1824 12.0833 18.378 12.2485 18.5426L12.2609 18.5548L13.5062 17.8906ZM14.5015 22.503C14.5015 22.2012 14.3678 21.9306 14.1564 21.7473L13.969 22.7809L13.8434 23.4431C14.2273 23.3034 14.5015 22.9352 14.5015 22.503ZM13.8296 23.5158L13.8092 23.623L14.9066 24.0579L15.344 23.8749L15.4201 23.8424C14.8543 23.6608 14.3001 23.5513 13.8296 23.5158ZM21.0177 15.5947C21.0624 15.5735 21.129 15.5426 21.2111 15.5141L22.156 13.2189L22.6605 12.9486C22.2771 12.8086 22.0035 12.4408 22.0035 12.009V11.0444L20.875 11.6559L20.562 11.8119L20.437 12.1559L19.6943 13.9414C19.8044 14.0927 19.9266 14.2363 20.0603 14.3706L20.0643 14.3746L20.0642 14.3746C20.3605 14.6756 20.6694 15.1815 20.6176 15.8011C20.6487 15.7864 20.6795 15.7709 20.71 15.7547C20.8158 15.6976 20.924 15.6393 21.0177 15.5947ZM25.7322 9.02411C26.2453 9.4809 26.6293 10.0629 26.8336 10.7126L23.9758 12.2438C23.9939 12.1685 24.0035 12.0899 24.0035 12.009V9.96078L25.7322 9.02411ZM19.4105 10.105L23.3692 8.01612C23.2464 8.00546 23.1217 8 22.9955 8C21.4023 8 20.06 8.86949 19.4105 10.105ZM13.375 8.0939L17.219 9.0309L15.156 10.0939L12.906 8.3749L13.375 8.0939Z"
    fill="white" />
  <path
    d="M22.9955 14.013H23.0035H22.9955ZM23.0035 12.009V9.505V12.009ZM27.9995 11.792C27.9995 14.438 25.7595 16.584 22.9955 16.584C22.6702 16.584 22.3475 16.554 22.0275 16.494C21.7975 16.451 21.6835 16.43 21.6025 16.442C21.5225 16.454 21.4085 16.514 21.1825 16.636C20.5352 16.9811 19.7901 17.0971 19.0685 16.965C19.3425 16.627 19.5285 16.222 19.6115 15.788C19.6615 15.523 19.5375 15.265 19.3515 15.076C18.483 14.2034 17.9942 13.0231 17.9915 11.792C17.9915 9.146 20.2315 7 22.9955 7C25.7595 7 27.9995 9.146 27.9995 11.792ZM13.5015 27H10.7175C10.3945 27 10.0695 26.954 9.7725 26.827C8.8065 26.412 8.3155 25.863 8.0875 25.52C8.02563 25.425 7.99522 25.3129 8.00061 25.1997C8.00599 25.0864 8.04689 24.9777 8.1175 24.889C9.2375 23.401 11.8335 22.503 13.5015 22.503M13.5065 27H16.2895C16.6135 27 16.9375 26.954 17.2345 26.827C18.2015 26.412 18.6915 25.863 18.9205 25.52C18.9824 25.425 19.0128 25.3129 19.0074 25.1997C19.002 25.0864 18.9611 24.9777 18.8905 24.889C17.7705 23.401 15.1745 22.503 13.5065 22.503M16.2845 17.289C16.2834 18.0249 15.9902 18.7303 15.4693 19.2501C14.9484 19.7698 14.2424 20.0615 13.5065 20.061C13.142 20.0615 12.7809 19.9902 12.4439 19.8512C12.1069 19.7122 11.8006 19.5082 11.5424 19.2508C11.2843 18.9934 11.0793 18.6876 10.9393 18.351C10.7994 18.0144 10.727 17.6535 10.7265 17.289C10.7269 16.9244 10.7991 16.5634 10.9391 16.2267C11.079 15.89 11.2839 15.5841 11.5421 15.3266C11.8002 15.0691 12.1066 14.865 12.4436 14.7259C12.7807 14.5868 13.1419 14.5155 13.5065 14.516C14.2426 14.5155 14.9487 14.8073 15.4697 15.3273C15.9906 15.8473 16.2837 16.5529 16.2845 17.289Z"
    fill="#006399" />
  <path
    d="M22.9955 14.013H23.0035M23.0035 12.009V9.505M13.5015 27H10.7175C10.3945 27 10.0695 26.954 9.7725 26.827C8.8065 26.412 8.3155 25.863 8.0875 25.52C8.02563 25.425 7.99522 25.3129 8.00061 25.1997C8.00599 25.0864 8.04689 24.9777 8.1175 24.889C9.2375 23.401 11.8335 22.503 13.5015 22.503M13.5065 27H16.2895C16.6135 27 16.9375 26.954 17.2345 26.827C18.2015 26.412 18.6915 25.863 18.9205 25.52C18.9824 25.425 19.0128 25.3129 19.0074 25.1997C19.002 25.0864 18.9611 24.9777 18.8905 24.889C17.7705 23.401 15.1745 22.503 13.5065 22.503M27.9995 11.792C27.9995 14.438 25.7595 16.584 22.9955 16.584C22.6702 16.584 22.3475 16.554 22.0275 16.494C21.7975 16.451 21.6835 16.43 21.6025 16.442C21.5225 16.454 21.4085 16.514 21.1825 16.636C20.5352 16.9811 19.7901 17.0971 19.0685 16.965C19.3425 16.627 19.5285 16.222 19.6115 15.788C19.6615 15.523 19.5375 15.265 19.3515 15.076C18.483 14.2034 17.9942 13.0231 17.9915 11.792C17.9915 9.146 20.2315 7 22.9955 7C25.7595 7 27.9995 9.146 27.9995 11.792ZM16.2845 17.289C16.2834 18.0249 15.9902 18.7303 15.4693 19.2501C14.9484 19.7698 14.2424 20.0615 13.5065 20.061C13.142 20.0615 12.7809 19.9902 12.4439 19.8512C12.1069 19.7122 11.8006 19.5082 11.5424 19.2508C11.2843 18.9934 11.0793 18.6876 10.9393 18.351C10.7994 18.0144 10.727 17.6535 10.7265 17.289C10.7269 16.9244 10.7991 16.5634 10.9391 16.2267C11.079 15.89 11.2839 15.5841 11.5421 15.3266C11.8002 15.0691 12.1066 14.865 12.4436 14.7259C12.7807 14.5868 13.1419 14.5155 13.5065 14.516C14.2426 14.5155 14.9487 14.8073 15.4697 15.3273C15.9906 15.8473 16.2837 16.5529 16.2845 17.289Z"
    stroke="white" stroke-width="1.5" stroke-linecap="round" stroke-linejoin="round" />
</svg>