<svg width="111" height="109" viewBox="0 0 111 109" fill="none" xmlns="http://www.w3.org/2000/svg">
<path d="M54.9981 75.0003C57.625 75.0035 60.2266 74.4876 62.6536 73.4823C65.0805 72.477 67.2849 71.0021 69.1401 69.1423C70.9999 67.2871 72.4748 65.0827 73.4801 62.6558C74.4855 60.2288 75.0013 57.6272 74.9981 55.0003C75.0013 52.3733 74.4855 49.7717 73.4801 47.3447C72.4748 44.9178 70.9999 42.7134 69.1401 40.8583C67.2849 38.9984 65.0805 37.5235 62.6536 36.5182C60.2266 35.5129 57.625 34.997 54.9981 35.0003C52.3712 34.997 49.7695 35.5129 47.3426 36.5182C44.9156 37.5235 42.7112 38.9984 40.8561 40.8583C38.9962 42.7134 37.5213 44.9178 36.516 47.3447C35.5107 49.7717 34.9948 52.3733 34.9981 55.0003C34.9948 57.6272 35.5107 60.2288 36.516 62.6558C37.5213 65.0827 38.9962 67.2871 40.8561 69.1423C42.7112 71.0021 44.9156 72.477 47.3426 73.4823C49.7695 74.4876 52.3712 75.0035 54.9981 75.0003Z" stroke="white" stroke-width="4" stroke-linejoin="round"/>
<path d="M46.998 55.0002L52.998 61.0002L64.998 49.0002" stroke="white" stroke-width="7" stroke-linecap="round" stroke-linejoin="round"/>
<path d="M99.85 10.5203C102.06 12.696 102.088 16.265 99.9123 18.475L92.4181 26.0875C95.2923 26.2228 97.7478 28.7585 97.7732 31.6619C97.7847 33.1534 97.2033 34.5884 96.1569 35.6514C95.1105 36.7143 93.6848 37.3181 92.1933 37.33L76.3114 37.4544C74.6546 37.4674 73.301 36.1348 73.288 34.478L73.1636 18.5961C73.1521 17.1046 73.7335 15.6696 74.7799 14.6067C75.8263 13.5438 77.252 12.94 78.7435 12.928C81.6456 12.904 84.2235 15.3234 84.4011 18.1951L91.8953 10.5826C94.0709 8.3726 97.64 8.34463 99.85 10.5203ZM83.4029 29.8997L97.24 15.8442C97.5633 15.485 97.7356 15.015 97.721 14.5319C97.7064 14.0489 97.506 13.5901 97.1617 13.2511C96.8173 12.9121 96.3554 12.7189 95.8722 12.7119C95.389 12.7049 94.9217 12.8845 94.5676 13.2134L80.7306 27.269L80.6622 18.5373C80.6473 18.0437 80.4425 17.5748 80.0906 17.2284C79.7387 16.8819 79.2667 16.6845 78.7729 16.6774C78.2757 16.6813 77.8004 16.8826 77.4517 17.2369C77.1029 17.5912 76.9091 18.0695 76.9129 18.5667L77.0158 31.6993C77.0244 32.8038 77.9268 33.6922 79.0314 33.6835L92.1639 33.5807C92.6611 33.5767 93.1363 33.3754 93.4851 33.0211C93.8339 32.6668 94.0277 32.1885 94.0239 31.6913C94.009 31.1977 93.8042 30.7288 93.4523 30.3824C93.1004 30.0359 92.6284 29.8385 92.1346 29.8313L83.4029 29.8997Z" fill="white"/>
<path d="M11.15 10.5201C8.93999 12.6957 8.91203 16.2647 11.0877 18.4748L18.5819 26.0873C15.7077 26.2225 13.2522 28.7582 13.2268 31.6617C13.2153 33.1532 13.7967 34.5882 14.8431 35.6511C15.8895 36.714 17.3152 37.3178 18.8067 37.3297L34.6886 37.4542C36.3454 37.4671 37.699 36.1346 37.712 34.4778L37.8364 18.5958C37.8479 17.1043 37.2665 15.6693 36.2201 14.6064C35.1737 13.5435 33.748 12.9397 32.2565 12.9278C29.3544 12.9037 26.7765 15.3231 26.5989 18.1949L19.1047 10.5824C16.9291 8.37235 13.36 8.34439 11.15 10.5201ZM27.5971 29.8995L13.76 15.844C13.4367 15.4848 13.2644 15.0147 13.279 14.5317C13.2936 14.0487 13.494 13.5899 13.8383 13.2508C14.1827 12.9118 14.6446 12.7187 15.1278 12.7117C15.611 12.7046 16.0783 12.8843 16.4324 13.2132L30.2694 27.2687L30.3378 18.5371C30.3527 18.0435 30.5575 17.5746 30.9094 17.2281C31.2613 16.8817 31.7333 16.6843 32.2271 16.6771C32.7243 16.6811 33.1996 16.8824 33.5483 17.2367C33.8971 17.591 34.0909 18.0693 34.0871 18.5665L33.9842 31.699C33.9756 32.8036 33.0732 33.692 31.9686 33.6833L18.8361 33.5804C18.3389 33.5764 17.8637 33.3752 17.5149 33.0209C17.1661 32.6666 16.9723 32.1882 16.9761 31.6911C16.991 31.1974 17.1958 30.7286 17.5477 30.3821C17.8996 30.0357 18.3716 29.8383 18.8654 29.8311L27.5971 29.8995Z" fill="white"/>
<path d="M99.85 98.4802C102.06 96.3045 102.088 92.7355 99.9123 90.5255L92.4181 82.913C95.2923 82.7777 97.7478 80.242 97.7732 77.3385C97.7847 75.847 97.2033 74.4121 96.1569 73.3491C95.1105 72.2862 93.6848 71.6824 92.1933 71.6705L76.3114 71.5461C74.6546 71.5331 73.301 72.8657 73.288 74.5225L73.1636 90.4044C73.1521 91.8959 73.7335 93.3309 74.7799 94.3938C75.8263 95.4567 77.252 96.0605 78.7435 96.0724C81.6456 96.0965 84.2235 93.6771 84.4011 90.8054L91.8953 98.4179C94.0709 100.628 97.64 100.656 99.85 98.4802ZM83.4029 79.1007L97.24 93.1563C97.5633 93.5155 97.7356 93.9855 97.721 94.4685C97.7064 94.9516 97.506 95.4104 97.1617 95.7494C96.8173 96.0884 96.3554 96.2816 95.8722 96.2886C95.389 96.2956 94.9217 96.116 94.5676 95.7871L80.7306 81.7315L80.6622 90.4632C80.6473 90.9568 80.4425 91.4256 80.0906 91.7721C79.7387 92.1186 79.2667 92.3159 78.7729 92.3231C78.2757 92.3192 77.8004 92.1179 77.4517 91.7636C77.1029 91.4093 76.9091 90.931 76.9129 90.4338L77.0158 77.3012C77.0244 76.1967 77.9268 75.3083 79.0314 75.3169L92.1639 75.4198C92.6611 75.4238 93.1363 75.6251 93.4851 75.9794C93.8339 76.3337 94.0277 76.812 94.0239 77.3092C94.009 77.8028 93.8042 78.2717 93.4523 78.6181C93.1004 78.9646 92.6284 79.162 92.1346 79.1691L83.4029 79.1007Z" fill="white"/>
<path d="M11.15 98.4799C8.93999 96.3043 8.91203 92.7353 11.0877 90.5252L18.5819 82.9127C15.7077 82.7775 13.2522 80.2418 13.2268 77.3383C13.2153 75.8468 13.7967 74.4118 14.8431 73.3489C15.8895 72.286 17.3152 71.6822 18.8067 71.6703L34.6886 71.5458C36.3454 71.5329 37.699 72.8654 37.712 74.5222L37.8364 90.4042C37.8479 91.8957 37.2665 93.3307 36.2201 94.3936C35.1737 95.4565 33.748 96.0603 32.2565 96.0722C29.3544 96.0963 26.7765 93.6769 26.5989 90.8051L19.1047 98.4176C16.9291 100.628 13.36 100.656 11.15 98.4799ZM27.5971 79.1005L13.76 93.156C13.4367 93.5152 13.2644 93.9853 13.279 94.4683C13.2936 94.9513 13.494 95.4101 13.8383 95.7492C14.1827 96.0882 14.6446 96.2813 15.1278 96.2883C15.611 96.2954 16.0783 96.1157 16.4324 95.7868L30.2694 81.7313L30.3378 90.4629C30.3527 90.9565 30.5575 91.4254 30.9094 91.7719C31.2613 92.1183 31.7333 92.3157 32.2271 92.3229C32.7243 92.3189 33.1996 92.1176 33.5483 91.7633C33.8971 91.409 34.0909 90.9307 34.0871 90.4335L33.9842 77.301C33.9756 76.1964 33.0732 75.308 31.9686 75.3167L18.8361 75.4196C18.3389 75.4236 17.8637 75.6248 17.5149 75.9791C17.1661 76.3334 16.9723 76.8118 16.9761 77.3089C16.991 77.8026 17.1958 78.2714 17.5477 78.6179C17.8996 78.9643 18.3716 79.1617 18.8654 79.1689L27.5971 79.1005Z" fill="white"/>
</svg>
