<svg width="26" height="26" viewBox="0 0 26 26" fill="none" xmlns="http://www.w3.org/2000/svg">
<path d="M18.1 5.95L14.5 7.75M14.5 7.75L14.05 7.975L10 10M14.5 7.75V10.9M14.5 7.75L5.95 3.25M10 10L1.9 5.95M10 10V18.55M13.2202 2.2438L15.0202 3.1888C16.9561 4.2049 17.9245 4.7125 18.4627 5.626C19 6.5386 19 7.6753 19 9.9478V10.0531C19 12.3247 19 13.4614 18.4627 14.374C17.9245 15.2875 16.9561 15.796 15.0202 16.8121L13.2202 17.7562C11.6398 18.5851 10.8496 19 10 19C9.1504 19 8.3602 18.586 6.7798 17.7562L4.9798 16.8112C3.0439 15.7951 2.0755 15.2875 1.5373 14.374C1 13.4614 1 12.3247 1 10.054V9.9487C1 7.6762 1 6.5395 1.5373 5.6269C2.0755 4.7134 3.0439 4.2049 4.9798 3.1897L6.7798 2.2447C8.3602 1.4149 9.1504 1 10 1C10.8496 1 11.6398 1.414 13.2202 2.2438Z" stroke="white" stroke-width="1.35" stroke-linecap="round"/>
<path d="M8.26172 16.8855L12.0453 20.6691L16.6697 18.9875L15.8289 24.0322L17.9309 23.1915L20.8736 16.4651C21.5743 16.6052 24.0967 15.2039 24.6572 14.3631C26.0025 12.3452 24.2368 11.4204 23.396 11.8407L19.192 13.9427L14.9881 12.6815L13.7269 13.9427L15.8289 15.6243L12.0453 17.7263L9.52291 16.4651L8.26172 16.8855Z" fill="#016399"/>
<path d="M23.6571 11.0072C23.3756 11.0334 23.1024 11.1169 22.8544 11.2527L19.4871 13.0366L14.9382 11.9213L14.6707 11.8549L14.4031 11.9884L12.8647 12.8803L11.9506 13.4155L12.7976 14.062L14.7377 15.534L12.3074 16.8277L9.69793 15.6453L9.38611 15.5119L9.07358 15.6682L7.82486 16.3367L7 16.7827L7.62436 17.452L11.4818 21.5992L11.8386 22.023L12.3295 21.7555L16.0086 19.7932L15.2729 23.8511L15.0274 25.1448L16.254 24.6318L18.0821 23.8511L18.3497 23.7398L18.4618 23.4723L21.1147 17.0282L24.8609 15.021C25.8927 14.4665 26.308 13.1536 25.7528 12.1225C25.4815 11.626 25.0246 11.2571 24.482 11.0964C24.2151 11.0149 23.9352 10.9847 23.6571 11.0072ZM23.7906 12.4343C23.8797 12.4286 23.9718 12.4315 24.0581 12.4572C24.1932 12.4948 24.3138 12.5723 24.4043 12.6794C24.4948 12.7866 24.5509 12.9185 24.5654 13.058C24.5798 13.1975 24.552 13.3381 24.4854 13.4615C24.4189 13.585 24.3168 13.6855 24.1923 13.7501L20.2007 15.9129L19.9773 16.0242L19.8881 16.2697L17.2352 22.6474L16.9226 22.7808L17.6811 18.5666L17.9487 17.1174L16.655 17.8088L12.1511 20.2392L9.31904 17.1616L9.43035 17.0945L12.0398 18.2548L12.3737 18.4103L12.6634 18.2319L23.5237 12.5014C23.6067 12.46 23.6978 12.4372 23.7906 12.4343ZM14.8491 13.3712L17.5919 14.0398L16.1199 14.7983L14.5144 13.5717L14.8491 13.3712Z" fill="white"/>
</svg>
