<svg width="32" height="31" viewBox="0 0 32 31" fill="none" xmlns="http://www.w3.org/2000/svg">
<path d="M12 3V7C12 7.26522 12.1054 7.51957 12.2929 7.70711C12.4804 7.89464 12.7348 8 13 8H17" stroke="white" stroke-width="2" stroke-linecap="round" stroke-linejoin="round"/>
<path d="M8 21H5C4.46957 21 3.96086 20.7893 3.58579 20.4142C3.21071 20.0391 3 19.5304 3 19V5C3 4.46957 3.21071 3.96086 3.58579 3.58579C3.96086 3.21071 4.46957 3 5 3H12L17 8" stroke="white" stroke-width="2" stroke-linecap="round" stroke-linejoin="round"/>
<path d="M23.7371 9.00815C23.4204 9.03753 23.1131 9.1315 22.8342 9.28426L19.0464 11.2909L13.9295 10.0363L13.6285 9.9617L13.3275 10.1118L11.597 11.1151L10.5688 11.7171L11.5216 12.4443L13.704 14.1002L10.9701 15.5554L8.03483 14.2254L7.68407 14.0753L7.33251 14.2511L5.92787 15.0032L5 15.5048L5.70232 16.2577L10.0415 20.9227L10.4428 21.3995L10.995 21.0985L15.1335 18.8912L14.306 23.4559L14.0298 24.9111L15.4096 24.334L17.466 23.4559L17.767 23.3307L17.893 23.0297L20.8773 15.7809L25.0912 13.5231C26.2518 12.8994 26.719 11.4225 26.0945 10.2627C25.7893 9.70414 25.2753 9.28916 24.665 9.10848C24.3648 9.01681 24.05 8.98277 23.7371 9.00815ZM23.8872 10.6135C23.9876 10.607 24.0911 10.6102 24.1882 10.6391C24.3402 10.6815 24.4759 10.7686 24.5776 10.8892C24.6794 11.0097 24.7425 11.1581 24.7588 11.315C24.7751 11.4719 24.7437 11.63 24.6689 11.7689C24.5941 11.9078 24.4791 12.0209 24.3391 12.0935L19.8491 14.5264L19.5979 14.6516L19.4975 14.9277L16.5133 22.1018L16.1617 22.2519L17.0149 17.5115L17.3159 15.8813L15.8607 16.659L10.7944 19.3929L7.60862 15.931L7.73384 15.8556L10.6691 17.1607L11.0448 17.3357L11.3707 17.135L23.587 10.6889C23.6805 10.6424 23.7829 10.6166 23.8872 10.6135ZM13.8292 11.6673L16.9146 12.4194L15.2587 13.2726L13.4527 11.8929L13.8292 11.6673Z" fill="white"/>
</svg>
