<svg width="20" height="20" viewBox="0 0 20 20" fill="none" xmlns="http://www.w3.org/2000/svg">
<path d="M7.54832 8.60021C7.54832 8.77252 7.51438 8.94315 7.44844 9.10234C7.3825 9.26153 7.28585 9.40618 7.16401 9.52802C7.04217 9.64987 6.89752 9.74652 6.73832 9.81246C6.57913 9.8784 6.40851 9.91234 6.2362 9.91234C6.06388 9.91234 5.89326 9.8784 5.73407 9.81246C5.57487 9.74652 5.43022 9.64987 5.30838 9.52802C5.18654 9.40618 5.08989 9.26153 5.02395 9.10234C4.95801 8.94314 4.92407 8.77252 4.92407 8.60021C4.92407 8.25221 5.06231 7.91847 5.30838 7.6724C5.55445 7.42632 5.8882 7.28808 6.2362 7.28808C6.58419 7.28808 6.91794 7.42632 7.16401 7.6724C7.41008 7.91847 7.54832 8.25221 7.54832 8.60021Z" stroke="white" stroke-width="1.10595"/>
<mask id="path-2-inside-1_24_432" fill="white">
<path d="M8.47406 12.1472C8.47406 13.088 7.47314 12.9977 6.23703 12.9977C5.00092 12.9977 4 13.088 4 12.1459C4 11.2051 5.00092 10.0168 6.23703 10.0168C7.47314 10.0168 8.47406 11.2065 8.47406 12.1459"/>
</mask>
<path d="M7.36811 12.1472C7.36811 12.1769 7.36613 12.0577 7.4819 11.931C7.57735 11.8265 7.65478 11.8278 7.56628 11.8486C7.47817 11.8693 7.32958 11.8857 7.08228 11.8915C6.83061 11.8973 6.57718 11.8918 6.23703 11.8918V14.1037C6.51493 14.1037 6.85016 14.1094 7.13382 14.1028C7.42185 14.0961 7.75525 14.0763 8.07188 14.0019C8.38813 13.9277 8.79305 13.7751 9.1148 13.423C9.45687 13.0486 9.58001 12.5879 9.58001 12.1472H7.36811ZM6.23703 11.8918C5.89688 11.8918 5.64347 11.8973 5.39187 11.8915C5.14462 11.8857 4.99616 11.8692 4.9082 11.8485C4.81997 11.8278 4.89742 11.8266 4.99273 11.931C5.10817 12.0576 5.10595 12.1763 5.10595 12.1459H2.89405C2.89405 12.5865 3.01695 13.0472 3.35868 13.4218C3.6803 13.7743 4.08523 13.9272 4.40174 14.0017C4.71853 14.0762 5.05207 14.096 5.34015 14.1028C5.62388 14.1094 5.95912 14.1037 6.23703 14.1037V11.8918ZM5.10595 12.1459C5.10595 12.0361 5.18674 11.7671 5.4464 11.5011C5.6917 11.2498 5.98007 11.1228 6.23703 11.1228V8.91089C5.25788 8.91089 4.42773 9.37805 3.86354 9.95606C3.31372 10.5193 2.89405 11.3148 2.89405 12.1459H5.10595ZM6.23703 11.1228C6.49358 11.1228 6.78194 11.2498 7.0275 11.5014C7.2875 11.7679 7.36811 12.037 7.36811 12.1459H9.58001C9.58001 11.3153 9.16016 10.5199 8.61067 9.95673C8.04674 9.37875 7.21658 8.91089 6.23703 8.91089V11.1228Z" fill="white" mask="url(#path-2-inside-1_24_432)"/>
<path fill-rule="evenodd" clip-rule="evenodd" d="M4 5C3.60218 5 3.22064 5.15804 2.93934 5.43934C2.65804 5.72064 2.5 6.10218 2.5 6.5V13.5C2.5 13.8978 2.65804 14.2794 2.93934 14.5607C3.22064 14.842 3.60218 15 4 15H14C14 15.3842 14.1444 15.7346 14.3819 16H4C3.33696 16 2.70107 15.7366 2.23223 15.2678C1.76339 14.7989 1.5 14.163 1.5 13.5V6.5C1.5 5.83696 1.76339 5.20107 2.23223 4.73223C2.70107 4.26339 3.33696 4 4 4H16C16.663 4 17.2989 4.26339 17.7678 4.73223C18.2366 5.20107 18.5 5.83696 18.5 6.5V11.0854C18.3436 11.0301 18.1753 11 18 11H17.5V6.5C17.5 6.10218 17.342 5.72064 17.0607 5.43934C16.7794 5.15804 16.3978 5 16 5H4Z" fill="white"/>
<path fill-rule="evenodd" clip-rule="evenodd" d="M9.32809 7.46456C9.23432 7.55833 9.18164 7.68551 9.18164 7.81812C9.18164 7.95072 9.23432 8.0779 9.32809 8.17167C9.42186 8.26544 9.54903 8.31812 9.68164 8.31812H12.4086C12.5412 8.31812 12.6684 8.26544 12.7622 8.17167C12.856 8.0779 12.9086 7.95072 12.9086 7.81812C12.9086 7.68551 12.856 7.55833 12.7622 7.46456C12.6684 7.37079 12.5412 7.31812 12.4086 7.31812H9.68164C9.54903 7.31812 9.42186 7.37079 9.32809 7.46456ZM9.32809 11.5566C9.23432 11.6503 9.18164 11.7775 9.18164 11.9101C9.18164 12.0427 9.23432 12.1699 9.32809 12.2637C9.42186 12.3574 9.54903 12.4101 9.68164 12.4101H11.5026C11.5259 12.0168 11.7007 11.6643 11.9694 11.4101H9.68164C9.54903 11.4101 9.42186 11.4628 9.32809 11.5566ZM14 10.0461V11H13C12.8721 11 12.748 11.016 12.6295 11.0461H9.68164C9.54903 11.0461 9.42186 10.9934 9.32809 10.8997C9.23432 10.8059 9.18164 10.6787 9.18164 10.5461C9.18164 10.4135 9.23432 10.2863 9.32809 10.1926C9.42186 10.0988 9.54903 10.0461 9.68164 10.0461H14ZM14.783 8.68212C14.406 8.88767 14.1269 9.25031 14.0338 9.68212H9.68164C9.54903 9.68212 9.42186 9.62944 9.32809 9.53567C9.23432 9.4419 9.18164 9.31472 9.18164 9.18212C9.18164 9.04951 9.23432 8.92233 9.32809 8.82856C9.42186 8.73479 9.54903 8.68212 9.68164 8.68212H14.783Z" fill="white"/>
<path d="M15.5 10V15M13 12.5H18" stroke="white" stroke-width="1.5" stroke-linecap="round"/>
</svg>
