<svg width="30" height="20" viewBox="0 0 30 20" fill="none" xmlns="http://www.w3.org/2000/svg">
<path fill-rule="evenodd" clip-rule="evenodd" d="M22.219 0.354099C22.5666 0.163776 22.9494 0.0467011 23.344 0.0100991C23.7338 -0.0215189 24.126 0.0208937 24.5 0.135099C25.2604 0.360201 25.9007 0.877213 26.281 1.5731C27.059 3.0181 26.477 4.8581 25.031 5.6351L24.8624 5.72544C24.0117 5.26278 23.0365 4.99995 22 4.99995C21.993 4.99995 21.9861 4.99996 21.9792 4.99998L24.094 3.8541C24.2684 3.76358 24.4116 3.62265 24.5049 3.44964C24.5981 3.27664 24.6371 3.07958 24.6168 2.8841C24.5966 2.68862 24.5179 2.50376 24.3911 2.35359C24.2644 2.20342 24.0953 2.09488 23.906 2.0421C23.785 2.0061 23.656 2.0021 23.531 2.0101C23.401 2.01404 23.2734 2.04611 23.157 2.1041L7.937 10.1351L7.531 10.3851L7.063 10.1671L3.406 8.5411L3.25 8.6351L7.219 12.9481L13.531 9.5421L15.344 8.5731L14.969 10.6041L13.906 16.5101L14.344 16.3231L16.1006 12.1002C16.2754 13.0432 16.6708 13.9089 17.2312 14.6416L16.063 17.4791L15.906 17.8541L15.531 18.0101L12.969 19.1041L11.25 19.8231L11.594 18.0101L12.625 12.3231L7.469 15.0731L6.781 15.4481L6.281 14.8541L0.875 9.0421L0 8.1041L1.156 7.4791L2.906 6.5421L3.344 6.3231L3.781 6.5101L7.438 8.1671L10.844 6.3541L8.125 4.2911L6.938 3.3851L8.219 2.6351L10.375 1.3851L10.75 1.1981L11.125 1.2911L17.5 2.8541L22.219 0.354099ZM14.844 4.2601L11 3.3231L10.531 3.6041L12.781 5.3231L14.844 4.2601Z" fill="white"/>
<path d="M18 11C18 12.0609 18.4214 13.0783 19.1716 13.8284C19.9217 14.5786 20.9391 15 22 15C23.0609 15 24.0783 14.5786 24.8284 13.8284C25.5786 13.0783 26 12.0609 26 11C26 9.93913 25.5786 8.92172 24.8284 8.17157C24.0783 7.42143 23.0609 7 22 7C20.9391 7 19.9217 7.42143 19.1716 8.17157C18.4214 8.92172 18 9.93913 18 11Z" stroke="white" stroke-width="2" stroke-linecap="round" stroke-linejoin="round"/>
<path d="M22 7V11H26" stroke="white" stroke-width="2" stroke-linecap="round" stroke-linejoin="round"/>
<path d="M29 8V11" stroke="white" stroke-width="2" stroke-linecap="round"/>
<circle cx="29" cy="14" r="1" fill="white"/>
</svg>
