<svg width="36" height="31" viewBox="0 0 36 31" fill="none" xmlns="http://www.w3.org/2000/svg">
  <path
    d="M26.8794 1.01465L26.9407 1.02197L27.0024 1.02172C28.1962 1.01674 31.1363 1.03819 33.1937 3.82363C33.2039 3.8375 33.2148 3.85219 33.2263 3.86768C33.7251 4.54078 35.3524 6.73655 34.9361 10.0262C34.6915 11.9587 33.7502 13.7356 32.2888 15.0236C30.8274 16.3115 28.9463 17.022 26.9983 17.0217H26.9982L19.0032 17.0217L19.0001 17.0142L20.699 15.3451L21.3421 14.7133L20.7801 14.0084C19.8433 12.8332 19.2565 11.4178 19.0868 9.92453C18.9172 8.43121 19.1717 6.92032 19.8211 5.56494C20.4672 4.21637 21.4783 3.07603 22.7395 2.27314C23.1685 2.02991 23.909 1.66915 24.7136 1.39193C25.5582 1.10092 26.3385 0.949961 26.8794 1.01465Z"
    stroke="white" stroke-width="2" />
  <path
    d="M25.1887 7.33812C24.9339 7.40744 24.6621 7.37317 24.4324 7.2428C24.3179 7.17747 24.2173 7.09012 24.1366 6.98577C24.056 6.88142 23.9967 6.76215 23.9623 6.63481C23.9279 6.50747 23.9191 6.37458 23.9363 6.2438C23.9534 6.11302 23.9963 5.98694 24.0624 5.8728C24.3257 5.41682 24.7043 5.03815 25.1603 4.77485C25.6163 4.51155 26.1335 4.37289 26.66 4.3728C27.1866 4.37272 27.7038 4.51121 28.1599 4.77437C28.6159 5.03752 28.9947 5.41607 29.2581 5.87197C29.5215 6.32787 29.6603 6.84507 29.6605 7.3716C29.6607 7.89813 29.5224 8.41544 29.2593 8.87155C28.9963 9.32767 28.6178 9.70652 28.162 9.97004C27.7061 10.2336 27.189 10.3725 26.6624 10.3728C26.3972 10.3728 26.1429 10.2674 25.9553 10.0799C25.7678 9.89237 25.6624 9.63802 25.6624 9.3728C25.6624 9.10759 25.7678 8.85323 25.9553 8.6657C26.1429 8.47816 26.3972 8.3728 26.6624 8.3728C26.9277 8.3728 27.182 8.26745 27.3696 8.07991C27.5571 7.89237 27.6624 7.63802 27.6624 7.3728C27.664 7.15139 27.592 6.93572 27.4578 6.75961C27.3236 6.58351 27.1347 6.45694 26.9208 6.39975C26.7069 6.34255 26.48 6.35797 26.2758 6.44358C26.0716 6.52919 25.9016 6.68016 25.7924 6.8728C25.6605 7.10153 25.4435 7.26881 25.1887 7.33812Z"
    fill="white" />
  <path
    d="M26.4624 11.3728C26.6584 11.3379 26.8604 11.3623 27.0424 11.4428V11.4528C27.2827 11.5603 27.475 11.7525 27.5824 11.9928C27.6384 12.1115 27.6658 12.2416 27.6624 12.3728C27.6624 12.638 27.5571 12.8924 27.3696 13.0799C27.182 13.2674 26.9277 13.3728 26.6624 13.3728C26.5308 13.3736 26.4004 13.3483 26.2785 13.2986C26.1567 13.2488 26.0459 13.1755 25.9524 13.0828C25.8589 12.9915 25.7842 12.8828 25.7324 12.7628C25.6833 12.6388 25.6595 12.5062 25.6624 12.3728C25.6558 12.2349 25.6833 12.0975 25.7424 11.9728C25.7912 11.8536 25.8625 11.745 25.9524 11.6528L26.1024 11.5228L26.2824 11.4328L26.4624 11.3728Z"
    fill="white" />
  <path
    d="M10.5001 29.2885H6.1987C5.69965 29.2885 5.1975 29.2174 4.73862 29.0212C3.2461 28.38 2.48747 27.5318 2.1352 27.0018C2.03959 26.855 1.99262 26.6819 2.00094 26.5069C2.00926 26.3319 2.07245 26.164 2.18155 26.0269C3.91202 23.7278 7.92299 22.3404 10.5001 22.3404M10.5079 29.2885H14.8078C15.3084 29.2885 15.809 29.2174 16.2678 29.0212C17.7619 28.38 18.519 27.5318 18.8728 27.0018C18.9684 26.855 19.0154 26.6819 19.0071 26.5069C18.9988 26.3319 18.9356 26.164 18.8265 26.0269C17.096 23.7278 13.085 22.3404 10.5079 22.3404M14.8 14.2844C14.7984 15.4214 14.3454 16.5113 13.5405 17.3144C12.7357 18.1175 11.6449 18.5682 10.5079 18.5673C9.94462 18.5682 9.38672 18.458 8.86604 18.2432C8.34535 18.0284 7.87207 17.7132 7.47322 17.3155C7.07437 16.9178 6.75775 16.4454 6.54146 15.9253C6.32516 15.4053 6.21342 14.8477 6.21261 14.2844C6.21322 13.7211 6.32481 13.1633 6.54102 12.6431C6.75722 12.1228 7.0738 11.6503 7.47267 11.2524C7.87154 10.8546 8.34489 10.5392 8.86568 10.3243C9.38647 10.1094 9.94449 9.99919 10.5079 10C11.6451 9.99918 12.7362 10.4501 13.5411 11.2535C14.346 12.057 14.7988 13.1472 14.8 14.2844Z"
    fill="#00416b" />
  <path
    d="M10.5001 29.2885H6.1987C5.69965 29.2885 5.1975 29.2174 4.73862 29.0212C3.2461 28.38 2.48747 27.5318 2.1352 27.0018C2.03959 26.855 1.99262 26.6819 2.00094 26.5069C2.00926 26.3319 2.07245 26.164 2.18155 26.0269C3.91202 23.7278 7.92299 22.3404 10.5001 22.3404M10.5079 29.2885H14.8078C15.3084 29.2885 15.809 29.2174 16.2678 29.0212C17.7619 28.38 18.519 27.5318 18.8728 27.0018C18.9684 26.855 19.0154 26.6819 19.0071 26.5069C18.9988 26.3319 18.9356 26.164 18.8265 26.0269C17.096 23.7278 13.085 22.3404 10.5079 22.3404M14.8 14.2844C14.7984 15.4214 14.3454 16.5113 13.5405 17.3144C12.7357 18.1175 11.6449 18.5682 10.5079 18.5673C9.94462 18.5682 9.38672 18.458 8.86604 18.2432C8.34535 18.0284 7.87207 17.7132 7.47322 17.3155C7.07437 16.9178 6.75775 16.4454 6.54146 15.9253C6.32516 15.4053 6.21342 14.8477 6.21261 14.2844C6.21322 13.7211 6.32481 13.1633 6.54102 12.6431C6.75722 12.1228 7.0738 11.6503 7.47267 11.2524C7.87154 10.8546 8.34489 10.5392 8.86568 10.3243C9.38647 10.1094 9.94449 9.99919 10.5079 10C11.6451 9.99918 12.7362 10.4501 13.5411 11.2535C14.346 12.057 14.7988 13.1472 14.8 14.2844Z"
    stroke="white" stroke-width="2.31759" stroke-linecap="round" stroke-linejoin="round" />
</svg>